<svg width="260" height="96" viewBox="0 0 260 96" fill="none" xmlns="http://www.w3.org/2000/svg">
<path d="M0 73.969V0H34.9768C43.1486 0 50.3341 1.5146 56.5334 4.54381C62.7327 7.57302 67.5583 11.835 71.0102 17.3299C74.5325 22.8247 76.2937 29.3763 76.2937 36.9845C76.2937 44.5223 74.5325 51.0738 71.0102 56.6391C67.5583 62.1339 62.7327 66.396 56.5334 69.4252C50.3341 72.4544 43.1486 73.969 34.9768 73.969H0ZM20.9227 57.2731H34.1314C38.3582 57.2731 42.0214 56.4982 45.1211 54.9484C48.2912 53.3281 50.7568 51.0034 52.518 47.9742C54.2791 44.8745 55.1597 41.2113 55.1597 36.9845C55.1597 32.6872 54.2791 29.024 52.518 25.9948C50.7568 22.9656 48.2912 20.6761 45.1211 19.1263C42.0214 17.506 38.3582 16.6959 34.1314 16.6959H20.9227V57.2731Z" fill="url(#paint0_linear_97_2)"/>
<path d="M107.643 74.92C100.88 74.92 94.9626 73.652 89.8905 71.1159C84.8887 68.5094 80.979 64.987 78.1611 60.5489C75.4137 56.0403 74.04 50.9329 74.04 45.2268C74.04 39.5206 75.3784 34.4484 78.0554 30.0103C80.8028 25.5017 84.5717 22.0146 89.3621 19.5489C94.1525 17.0129 99.5416 15.7448 105.53 15.7448C111.165 15.7448 116.308 16.9072 120.957 19.2319C125.607 21.4862 129.305 24.8324 132.053 29.2706C134.8 33.7087 136.174 39.0979 136.174 45.4381C136.174 46.1426 136.139 46.9527 136.068 47.8685C135.998 48.7843 135.927 49.6297 135.857 50.4046H90.5245V39.8376H125.184L117.576 42.7963C117.646 40.1898 117.153 37.9355 116.097 36.0335C115.11 34.1314 113.701 32.652 111.87 31.5953C110.109 30.5386 108.03 30.0103 105.635 30.0103C103.24 30.0103 101.127 30.5386 99.2951 31.5953C97.5339 32.652 96.1602 34.1666 95.174 36.1391C94.1877 38.0412 93.6946 40.2955 93.6946 42.902V45.9664C93.6946 48.7843 94.2582 51.2147 95.3853 53.2577C96.5829 55.3006 98.2736 56.8857 100.457 58.0128C102.641 59.0695 105.248 59.5979 108.277 59.5979C111.095 59.5979 113.49 59.2104 115.463 58.4355C117.506 57.5901 119.513 56.3221 121.486 54.6314L132.053 65.6211C129.305 68.6503 125.924 70.975 121.908 72.5953C117.893 74.1451 113.138 74.92 107.643 74.92Z" fill="url(#paint1_linear_97_2)"/>
<path d="M166.723 74.92C159.96 74.92 154.043 73.652 148.971 71.1159C143.969 68.5094 140.059 64.987 137.241 60.5489C134.494 56.0403 133.12 50.9329 133.12 45.2268C133.12 39.5206 134.459 34.4484 137.136 30.0103C139.883 25.5017 143.652 22.0146 148.442 19.5489C153.233 17.0129 158.622 15.7448 164.61 15.7448C170.246 15.7448 175.388 16.9072 180.038 19.2319C184.687 21.4862 188.386 24.8324 191.133 29.2706C193.88 33.7087 195.254 39.0979 195.254 45.4381C195.254 46.1426 195.219 46.9527 195.148 47.8685C195.078 48.7843 195.008 49.6297 194.937 50.4046H149.605V39.8376H184.264L176.656 42.7963C176.727 40.1898 176.234 37.9355 175.177 36.0335C174.191 34.1314 172.782 32.652 170.95 31.5953C169.189 30.5386 167.111 30.0103 164.716 30.0103C162.32 30.0103 160.207 30.5386 158.375 31.5953C156.614 32.652 155.24 34.1666 154.254 36.1391C153.268 38.0412 152.775 40.2955 152.775 42.902V45.9664C152.775 48.7843 153.338 51.2147 154.466 53.2577C155.663 55.3006 157.354 56.8857 159.538 58.0128C161.722 59.0695 164.328 59.5979 167.357 59.5979C170.175 59.5979 172.57 59.2104 174.543 58.4355C176.586 57.5901 178.594 56.3221 180.566 54.6314L191.133 65.6211C188.386 68.6503 185.004 70.975 180.989 72.5953C176.973 74.1451 172.218 74.92 166.723 74.92Z" fill="url(#paint2_linear_97_2)"/>
<path d="M231.827 74.92C226.966 74.92 222.81 73.8633 219.358 71.7499C215.906 69.5661 213.264 66.3255 211.432 62.0283C209.671 57.6606 208.791 52.0953 208.791 45.3324C208.791 38.4991 209.636 32.9338 211.327 28.6366C213.017 24.2689 215.554 21.0283 218.935 18.9149C222.387 16.8015 226.684 15.7448 231.827 15.7448C237.04 15.7448 241.76 16.9776 245.986 19.4433C250.284 21.8385 253.665 25.2551 256.131 29.6933C258.667 34.061 259.935 39.274 259.935 45.3324C259.935 51.3908 258.667 56.6391 256.131 61.0772C253.665 65.5154 250.284 68.9321 245.986 71.3272C241.76 73.7224 237.04 74.92 231.827 74.92ZM195.793 94.469V16.6959H214.919V26.4175L214.814 45.3324L215.871 64.353V94.469H195.793ZM227.6 58.9638C229.854 58.9638 231.862 58.4355 233.623 57.3788C235.455 56.3221 236.899 54.7723 237.956 52.7293C239.083 50.6864 239.646 48.2207 239.646 45.3324C239.646 42.4441 239.083 39.9785 237.956 37.9355C236.899 35.8926 235.455 34.3427 233.623 33.286C231.862 32.2293 229.854 31.701 227.6 31.701C225.346 31.701 223.303 32.2293 221.471 33.286C219.71 34.3427 218.266 35.8926 217.139 37.9355C216.082 39.9785 215.554 42.4441 215.554 45.3324C215.554 48.2207 216.082 50.6864 217.139 52.7293C218.266 54.7723 219.71 56.3221 221.471 57.3788C223.303 58.4355 225.346 58.9638 227.6 58.9638Z" fill="url(#paint3_linear_97_2)"/>
<path d="M0.299072 95.7885V83.4604H5.89958C7.23807 83.4604 8.41805 83.7187 9.43953 84.2353C10.461 84.7401 11.2594 85.4505 11.8347 86.3663C12.41 87.2821 12.6977 88.3681 12.6977 89.6244C12.6977 90.869 12.41 91.9551 11.8347 92.8826C11.2594 93.7984 10.461 94.5146 9.43953 95.0312C8.41805 95.5361 7.23807 95.7885 5.89958 95.7885H0.299072ZM3.15216 93.4462H5.75869C6.58056 93.4462 7.2909 93.2935 7.8897 92.9883C8.50024 92.6713 8.96988 92.2251 9.29863 91.6498C9.63912 91.0745 9.80937 90.3994 9.80937 89.6244C9.80937 88.8378 9.63912 88.1627 9.29863 87.5991C8.96988 87.0238 8.50024 86.5835 7.8897 86.2782C7.2909 85.9612 6.58056 85.8027 5.75869 85.8027H3.15216V93.4462Z" fill="url(#paint4_linear_97_2)"/>
<path d="M31.5628 88.4269H37.4979V90.6459H31.5628V88.4269ZM31.7741 93.499H38.4842V95.7885H28.9387V83.4604H38.2552V85.7499H31.7741V93.499Z" fill="url(#paint5_linear_97_2)"/>
<path d="M60.7435 95.9999C59.7925 95.9999 58.906 95.8472 58.0842 95.542C57.274 95.225 56.5696 94.7788 55.9708 94.2035C55.372 93.6282 54.9023 92.953 54.5618 92.1781C54.2331 91.4032 54.0687 90.552 54.0687 89.6244C54.0687 88.6969 54.2331 87.8457 54.5618 87.0708C54.9023 86.2958 55.372 85.6207 55.9708 85.0454C56.5813 84.4701 57.2916 84.0298 58.1018 83.7245C58.9119 83.4075 59.7984 83.249 60.7611 83.249C61.8296 83.249 62.7924 83.4369 63.6495 83.8126C64.5183 84.1766 65.2462 84.7167 65.8333 85.4329L64.0017 87.1236C63.579 86.6422 63.1094 86.2841 62.5928 86.0493C62.0761 85.8027 61.5126 85.6794 60.902 85.6794C60.3267 85.6794 59.7984 85.7734 59.317 85.9612C58.8356 86.1491 58.4188 86.4191 58.0666 86.7714C57.7143 87.1236 57.4384 87.5404 57.2388 88.0218C57.051 88.5032 56.957 89.0374 56.957 89.6244C56.957 90.2115 57.051 90.7457 57.2388 91.2271C57.4384 91.7085 57.7143 92.1253 58.0666 92.4775C58.4188 92.8298 58.8356 93.0998 59.317 93.2877C59.7984 93.4755 60.3267 93.5695 60.902 93.5695C61.5126 93.5695 62.0761 93.452 62.5928 93.2172C63.1094 92.9707 63.579 92.6008 64.0017 92.1077L65.8333 93.7984C65.2462 94.5146 64.5183 95.0606 63.6495 95.4363C62.7924 95.812 61.8237 95.9999 60.7435 95.9999Z" fill="url(#paint6_linear_97_2)"/>
<path d="M81.8493 95.7885V83.4604H87.1856C88.2893 83.4604 89.2403 83.6424 90.0387 84.0063C90.8371 84.3586 91.4535 84.8693 91.888 85.5385C92.3224 86.2078 92.5396 87.0062 92.5396 87.9337C92.5396 88.8495 92.3224 89.6421 91.888 90.3113C91.4535 90.9688 90.8371 91.4737 90.0387 91.8259C89.2403 92.1781 88.2893 92.3543 87.1856 92.3543H83.4344L84.7024 91.1038V95.7885H81.8493ZM89.6865 95.7885L86.6045 91.3152H89.6513L92.7685 95.7885H89.6865ZM84.7024 91.4208L83.4344 90.0823H87.0271C87.9077 90.0823 88.5652 89.8945 88.9996 89.5188C89.4341 89.1313 89.6513 88.603 89.6513 87.9337C89.6513 87.2527 89.4341 86.7244 88.9996 86.3487C88.5652 85.973 87.9077 85.7851 87.0271 85.7851H83.4344L84.7024 84.429V91.4208Z" fill="url(#paint7_linear_97_2)"/>
<path d="M111.782 95.7885V90.7516L112.433 92.4775L107.009 83.4604H110.038L114.195 90.3817H112.451L116.625 83.4604H119.425L114.001 92.4775L114.635 90.7516V95.7885H111.782Z" fill="url(#paint8_linear_97_2)"/>
<path d="M134.605 95.7885V83.4604H139.942C141.045 83.4604 141.996 83.6424 142.795 84.0063C143.593 84.3586 144.209 84.8693 144.644 85.5385C145.078 86.2078 145.295 87.0062 145.295 87.9337C145.295 88.8495 145.078 89.6421 144.644 90.3113C144.209 90.9805 143.593 91.4972 142.795 91.8611C141.996 92.2134 141.045 92.3895 139.942 92.3895H136.19L137.458 91.1038V95.7885H134.605ZM137.458 91.4208L136.19 90.0647H139.783C140.664 90.0647 141.321 89.8769 141.756 89.5012C142.19 89.1254 142.407 88.603 142.407 87.9337C142.407 87.2527 142.19 86.7244 141.756 86.3487C141.321 85.973 140.664 85.7851 139.783 85.7851H136.19L137.458 84.429V91.4208Z" fill="url(#paint9_linear_97_2)"/>
<path d="M163.649 95.7885V85.7851H159.704V83.4604H170.447V85.7851H166.502V95.7885H163.649Z" fill="url(#paint10_linear_97_2)"/>
<defs>
<linearGradient id="paint0_linear_97_2" x1="129.967" y1="0" x2="129.967" y2="94.469" gradientUnits="userSpaceOnUse">
<stop stop-color="#F7F7F7"/>
<stop offset="1" stop-color="#FBFBFB"/>
</linearGradient>
<linearGradient id="paint1_linear_97_2" x1="129.967" y1="0" x2="129.967" y2="94.469" gradientUnits="userSpaceOnUse">
<stop stop-color="#F7F7F7"/>
<stop offset="1" stop-color="#FBFBFB"/>
</linearGradient>
<linearGradient id="paint2_linear_97_2" x1="129.967" y1="0" x2="129.967" y2="94.469" gradientUnits="userSpaceOnUse">
<stop stop-color="#F7F7F7"/>
<stop offset="1" stop-color="#FBFBFB"/>
</linearGradient>
<linearGradient id="paint3_linear_97_2" x1="129.967" y1="0" x2="129.967" y2="94.469" gradientUnits="userSpaceOnUse">
<stop stop-color="#F7F7F7"/>
<stop offset="1" stop-color="#FBFBFB"/>
</linearGradient>
<linearGradient id="paint4_linear_97_2" x1="85.3729" y1="83.249" x2="85.3729" y2="95.9999" gradientUnits="userSpaceOnUse">
<stop stop-color="#F7F7F7"/>
<stop offset="1" stop-color="#FBFBFB"/>
</linearGradient>
<linearGradient id="paint5_linear_97_2" x1="85.3729" y1="83.249" x2="85.3729" y2="95.9999" gradientUnits="userSpaceOnUse">
<stop stop-color="#F7F7F7"/>
<stop offset="1" stop-color="#FBFBFB"/>
</linearGradient>
<linearGradient id="paint6_linear_97_2" x1="85.3729" y1="83.249" x2="85.3729" y2="95.9999" gradientUnits="userSpaceOnUse">
<stop stop-color="#F7F7F7"/>
<stop offset="1" stop-color="#FBFBFB"/>
</linearGradient>
<linearGradient id="paint7_linear_97_2" x1="85.3729" y1="83.249" x2="85.3729" y2="95.9999" gradientUnits="userSpaceOnUse">
<stop stop-color="#F7F7F7"/>
<stop offset="1" stop-color="#FBFBFB"/>
</linearGradient>
<linearGradient id="paint8_linear_97_2" x1="85.3729" y1="83.249" x2="85.3729" y2="95.9999" gradientUnits="userSpaceOnUse">
<stop stop-color="#F7F7F7"/>
<stop offset="1" stop-color="#FBFBFB"/>
</linearGradient>
<linearGradient id="paint9_linear_97_2" x1="85.3729" y1="83.249" x2="85.3729" y2="95.9999" gradientUnits="userSpaceOnUse">
<stop stop-color="#F7F7F7"/>
<stop offset="1" stop-color="#FBFBFB"/>
</linearGradient>
<linearGradient id="paint10_linear_97_2" x1="85.3729" y1="83.249" x2="85.3729" y2="95.9999" gradientUnits="userSpaceOnUse">
<stop stop-color="#F7F7F7"/>
<stop offset="1" stop-color="#FBFBFB"/>
</linearGradient>
</defs>
</svg>
